<?xml version="1.0" encoding="utf-8"?>
<!-- Generator: Adobe Illustrator 25.2.0, SVG Export Plug-In . SVG Version: 6.00 Build 0)  -->
<svg version="1.1" id="Layer_1" xmlns="http://www.w3.org/2000/svg" xmlns:xlink="http://www.w3.org/1999/xlink" x="0px" y="0px"
	 viewBox="0 0 500 500" style="enable-background:new 0 0 500 500;" xml:space="preserve">
<style type="text/css">
	.st0{fill:#0B1934;}
	.st1{fill:#2AB763;}
	.st2{fill:#19934A;}
	.st3{fill:#565CD6;}
	.st4{fill:#30388E;}
	.st5{fill:#E1E8EE;}
	.st6{display:none;}
	.st7{display:inline;fill:none;stroke:#FFFFFF;stroke-width:0.9972;stroke-miterlimit:10;}
</style>
<g>
	<g>
		<path class="st3" d="M161.96,220.31c-19.2-0.05-16.3-22.72-16.17-35.76c0.05-4.75,1.7-7.81,3.95-11.06
			c8.37-12.12,27.02-8.93,41.59-11.69c30.86-5.85,49.85-39.59,61.35-60.02c12.54-22.28,23.87-55.32,37.17-72.27
			c8.47-10.8,17.23-14.41,20.46-15.57c3.4-1.22,6.09-1.88,8.08-1.97c33.4-1.48,37.34,1.97,35.76,35.76c-0.31,6.66-2.28,8.7-2.72,9.3
			c-6,8.35-20.28,6.71-26.94,6.87c-25.8,0.6-46.67,30.68-59.63,49.36c-23.07,33.25-21.55,58.92-43.88,82.32
			c-2.9,3.04-11.96,12.19-26.45,18.81C178.27,221.81,166.47,220.33,161.96,220.31z"/>
		<path class="st1" d="M282.25,217.46c4.53,3.81,11.93,3.81,16.46,0c9.51-8.2,45.13-37.81,53.99-45.41c1.94-1.63,1.94-4.3,0-5.93
			l-23.25-19.56l-31.97-26.89c-4.22-3.73-12.36-1.53-15.45,1.23c-1.79,1.5-2.77,3.12-3.06,4.8c-0.14,0.81-0.51,3.7,3.06,8.07
			c4.48,5.49,19.24,18.32,39.87,34.36c-5.73,2.44-38.58,16.56-49.96,26.79C270.93,195.83,264.04,202.15,282.25,217.46z"/>
		<path class="st1" d="M217.69,14.81c-4.53-3.81-11.93-3.81-16.46,0c-9.51,8.2-45.13,37.81-53.99,45.41c-1.94,1.63-1.94,4.3,0,5.93
			l23.25,19.56l31.97,26.89c4.22,3.73,12.36,1.53,15.45-1.23c1.79-1.5,2.77-3.12,3.06-4.8c0.14-0.81,0.51-3.7-3.06-8.07
			c-4.48-5.49-19.24-18.32-39.87-34.36c5.73-2.44,38.58-16.56,49.96-26.79C229.01,36.44,235.9,30.13,217.69,14.81z"/>
	</g>
	<g>
		<g>
			<path class="st5" d="M41.13,427.36v-11.19h25.75v-78.04H41.13v-11.19h63.52v11.19H78.9v78.04h25.75v11.19H41.13z"/>
			<path class="st5" d="M160.44,429.37c-10.59,0-18.96-3.09-25.11-9.25c-6.15-6.17-9.23-15.04-9.23-26.61v-66.56h12.02v66.56
				c0,8.03,1.91,14.15,5.72,18.36c3.81,4.21,9.35,6.31,16.6,6.31c7.34,0,12.9-2.1,16.67-6.31c3.77-4.21,5.65-10.33,5.65-18.36
				v-66.56h12.02v66.56c0,11.57-3.08,20.44-9.23,26.61C179.4,426.29,171.03,429.37,160.44,429.37z"/>
			<path class="st5" d="M212.38,427.36v-11.19h8.58v-78.04h-8.58v-11.19h40.49c9.63,0,16.97,2.49,22.03,7.46
				c5.05,4.97,7.58,11.19,7.58,18.65v1.72c0,5.45-1.62,10.04-4.86,13.77c-3.24,3.73-7.25,6.26-12.02,7.6v1.72
				c4.77,1.24,8.77,3.8,12.02,7.67c3.24,3.87,4.86,8.49,4.86,13.84v1.72c0,7.56-2.53,13.82-7.58,18.79
				c-5.06,4.97-12.4,7.46-22.03,7.46H212.38z M232.98,371.41h19.46c5.72,0,10.25-1.48,13.59-4.45c3.34-2.96,5.01-7.03,5.01-12.19
				v-0.86c0-4.88-1.77-8.73-5.29-11.55c-3.53-2.82-8.11-4.23-13.73-4.23h-19.03V371.41z M232.98,416.17H252
				c5.63,0,10.2-1.41,13.73-4.23c3.53-2.82,5.29-6.72,5.29-11.69v-0.86c0-5.07-1.67-9.13-5.01-12.19
				c-3.34-3.06-7.87-4.59-13.59-4.59h-19.46V416.17z"/>
			<path class="st5" d="M303.94,427.36V326.94h35.77c6.87,0,12.57,1.27,17.1,3.8c4.53,2.54,7.92,5.86,10.16,9.97
				c2.24,4.11,3.36,8.61,3.36,13.49v4.3c0,4.88-1.14,9.42-3.43,13.63c-2.29,4.21-5.7,7.58-10.23,10.11
				c-4.53,2.54-10.18,3.8-16.95,3.8h-23.75v41.31H303.94z M315.95,374.86h22.32c13.35,0,20.03-5.74,20.03-17.21v-2.58
				c0-5.07-1.65-9.16-4.94-12.27c-3.29-3.11-8.32-4.66-15.09-4.66h-22.32V374.86z"/>
			<path class="st5" d="M423.68,429.37c-10.97,0-19.58-3.52-25.82-10.55c-6.25-7.03-9.37-17.19-9.37-30.48v-22.38
				c0-12.91,3.12-22.97,9.37-30.2c6.24-7.22,14.85-10.83,25.82-10.83c7.63,0,14.07,1.63,19.31,4.88c5.24,3.25,9.2,7.63,11.87,13.13
				c2.67,5.5,4.01,11.64,4.01,18.43v1.72h-12.02v-1.72c-0.1-4.4-0.93-8.51-2.5-12.34c-1.57-3.82-4.06-6.93-7.44-9.33
				c-3.39-2.39-7.8-3.59-13.23-3.59c-7.73,0-13.52,2.82-17.38,8.46c-3.86,5.64-5.79,13.06-5.79,22.24v20.66
				c0,9.75,1.93,17.31,5.79,22.67c3.86,5.36,9.66,8.03,17.38,8.03c5.44,0,9.87-1.2,13.31-3.59c3.43-2.39,5.94-5.5,7.51-9.33
				c1.57-3.82,2.36-7.94,2.36-12.34v-1.72h12.02v1.72c0,6.79-1.34,12.93-4.01,18.43c-2.67,5.5-6.63,9.88-11.87,13.13
				C437.75,427.74,431.31,429.37,423.68,429.37z"/>
		</g>
	</g>
	<g>
		<g>
			<path class="st5" d="M41.13,481.42v-2.69h6.21v-18.78h-6.21v-2.69h15.32v2.69h-6.21v18.78h6.21v2.69H41.13z"/>
			<path class="st5" d="M69.91,481.9c-2.55,0-4.57-0.74-6.06-2.23c-1.48-1.48-2.23-3.62-2.23-6.4v-16.01h2.9v16.01
				c0,1.93,0.46,3.41,1.38,4.42c0.92,1.01,2.25,1.52,4,1.52c1.77,0,3.11-0.51,4.02-1.52c0.91-1.01,1.36-2.49,1.36-4.42v-16.01h2.9
				v16.01c0,2.78-0.74,4.92-2.23,6.4C74.49,481.16,72.47,481.9,69.91,481.9z"/>
			<path class="st5" d="M82.44,481.42v-2.69h2.07v-18.78h-2.07v-2.69h9.77c2.32,0,4.1,0.6,5.31,1.79c1.22,1.2,1.83,2.69,1.83,4.49
				v0.41c0,1.31-0.39,2.42-1.17,3.31c-0.78,0.9-1.75,1.51-2.9,1.83v0.41c1.15,0.3,2.12,0.92,2.9,1.85c0.78,0.93,1.17,2.04,1.17,3.33
				v0.41c0,1.82-0.61,3.33-1.83,4.52c-1.22,1.2-2.99,1.79-5.31,1.79H82.44z M87.41,467.95h4.69c1.38,0,2.47-0.35,3.28-1.07
				c0.8-0.71,1.21-1.69,1.21-2.93v-0.21c0-1.17-0.43-2.1-1.28-2.78c-0.85-0.68-1.96-1.02-3.31-1.02h-4.59V467.95z M87.41,478.72H92
				c1.36,0,2.46-0.34,3.31-1.02c0.85-0.68,1.28-1.62,1.28-2.81v-0.21c0-1.22-0.4-2.2-1.21-2.93c-0.81-0.74-1.9-1.1-3.28-1.1h-4.69
				V478.72z"/>
			<path class="st5" d="M125.66,481.42v-24.16h8.63c1.66,0,3.03,0.31,4.12,0.91c1.09,0.61,1.91,1.41,2.45,2.4s0.81,2.07,0.81,3.24
				v1.04c0,1.17-0.28,2.27-0.83,3.28c-0.55,1.01-1.38,1.82-2.47,2.43c-1.09,0.61-2.46,0.91-4.09,0.91h-5.73v9.94H125.66z
				 M128.56,468.78h5.39c3.22,0,4.83-1.38,4.83-4.14v-0.62c0-1.22-0.4-2.2-1.19-2.95c-0.79-0.75-2.01-1.12-3.64-1.12h-5.39V468.78z"
				/>
			<path class="st5" d="M145.47,481.42v-2.49h3.93v-12.15h-3.52v-2.49h6.21v2.28h0.41c0.44-0.94,1.06-1.64,1.88-2.09
				c0.82-0.45,1.73-0.67,2.74-0.67c1.7,0,3.09,0.56,4.16,1.69c1.07,1.13,1.64,2.77,1.71,4.93l-2.83,0.41c0-1.59-0.38-2.73-1.14-3.43
				c-0.76-0.7-1.69-1.05-2.8-1.05c-1.4,0-2.45,0.51-3.12,1.53c-0.68,1.03-1.02,2.29-1.02,3.78v7.25h4.35v2.49H145.47z"/>
			<path class="st5" d="M175.53,481.9c-1.52,0-2.93-0.34-4.23-1.04c-1.3-0.69-2.35-1.69-3.16-3c-0.81-1.31-1.21-2.91-1.21-4.8v-0.41
				c0-1.86,0.4-3.46,1.21-4.78c0.8-1.32,1.86-2.33,3.16-3.02c1.3-0.69,2.71-1.04,4.23-1.04s2.93,0.34,4.23,1.04
				c1.3,0.69,2.35,1.7,3.16,3.02c0.81,1.32,1.21,2.92,1.21,4.78v0.41c0,1.89-0.4,3.49-1.21,4.8c-0.81,1.31-1.86,2.31-3.16,3
				C178.46,481.56,177.05,481.9,175.53,481.9z M175.53,479.35c1.1,0,2.09-0.25,2.97-0.76s1.57-1.23,2.09-2.17
				c0.52-0.94,0.78-2.06,0.78-3.35v-0.41c0-1.24-0.26-2.34-0.78-3.28c-0.52-0.94-1.22-1.68-2.11-2.21
				c-0.89-0.53-1.87-0.79-2.95-0.79c-1.08,0-2.07,0.26-2.95,0.79c-0.89,0.53-1.59,1.26-2.11,2.21c-0.52,0.94-0.78,2.04-0.78,3.28
				v0.41c0,1.29,0.26,2.41,0.78,3.35c0.52,0.94,1.22,1.67,2.11,2.17C173.47,479.09,174.45,479.35,175.53,479.35z"/>
			<path class="st5" d="M191,488.32v-2.48h10.18c0.62,0,0.93-0.35,0.93-1.04v-6.01h-0.41c-0.55,1.04-1.31,1.81-2.26,2.33
				c-0.96,0.52-2,0.78-3.12,0.78c-1.52,0-2.92-0.34-4.19-1.02c-1.28-0.68-2.3-1.68-3.07-2.99c-0.77-1.31-1.16-2.9-1.16-4.76v-0.55
				c0-1.86,0.39-3.45,1.17-4.75c0.78-1.3,1.81-2.3,3.07-2.98c1.27-0.69,2.63-1.04,4.11-1.04c1.24,0,2.34,0.27,3.28,0.81
				c0.94,0.54,1.67,1.33,2.17,2.36h0.41v-2.69h2.69v21.33c0,0.78-0.25,1.43-0.74,1.93c-0.5,0.51-1.13,0.76-1.92,0.76H191z
				 M196.38,479.35c1.08,0,2.05-0.26,2.92-0.78c0.86-0.52,1.55-1.25,2.05-2.19c0.51-0.94,0.76-2.05,0.76-3.31v-0.41
				c0-1.22-0.26-2.3-0.78-3.24c-0.52-0.94-1.21-1.69-2.07-2.23c-0.86-0.54-1.82-0.81-2.88-0.81c-1.08,0-2.05,0.26-2.92,0.78
				c-0.86,0.52-1.55,1.24-2.05,2.17c-0.51,0.93-0.76,2.02-0.76,3.26v0.55c0,1.27,0.25,2.36,0.74,3.3c0.49,0.93,1.17,1.65,2.04,2.16
				C194.29,479.09,195.27,479.35,196.38,479.35z"/>
			<path class="st5" d="M208.84,481.42v-2.49h3.93v-12.15h-3.52v-2.49h6.21v2.28h0.41c0.44-0.94,1.06-1.64,1.88-2.09
				c0.82-0.45,1.73-0.67,2.74-0.67c1.7,0,3.09,0.56,4.16,1.69c1.07,1.13,1.64,2.77,1.71,4.93l-2.83,0.41c0-1.59-0.38-2.73-1.14-3.43
				c-0.76-0.7-1.69-1.05-2.8-1.05c-1.4,0-2.45,0.51-3.12,1.53c-0.68,1.03-1.02,2.29-1.02,3.78v7.25h4.35v2.49H208.84z"/>
			<path class="st5" d="M237.97,481.9c-1.5,0-2.85-0.34-4.06-1.02c-1.21-0.68-2.17-1.67-2.88-2.97c-0.71-1.3-1.07-2.89-1.07-4.78
				v-0.55c0-1.86,0.36-3.45,1.07-4.76c0.71-1.31,1.67-2.31,2.88-2.99c1.21-0.68,2.54-1.02,3.99-1.02c1.17,0,2.24,0.26,3.19,0.78
				c0.95,0.52,1.71,1.32,2.26,2.4h0.41v-2.69h2.69v13.6c0,0.69,0.31,1.04,0.93,1.04h0.86v2.49h-1.83c-0.71,0-1.33-0.23-1.86-0.69
				c-0.53-0.46-0.79-1.2-0.79-2.21h-0.41c-0.55,1.13-1.32,1.97-2.29,2.54C240.08,481.62,239.05,481.9,237.97,481.9z M238.25,479.35
				c1.61,0,2.93-0.58,3.97-1.73c1.04-1.15,1.55-2.67,1.55-4.55v-0.41c0-1.22-0.24-2.3-0.72-3.24c-0.48-0.94-1.14-1.69-1.97-2.23
				c-0.83-0.54-1.77-0.81-2.83-0.81c-1.06,0-2,0.26-2.83,0.78c-0.83,0.52-1.48,1.24-1.97,2.17c-0.48,0.93-0.73,2.02-0.73,3.26v0.55
				c0,1.93,0.52,3.45,1.55,4.56S236.64,479.35,238.25,479.35z"/>
			<path class="st5" d="M251.12,481.42V464.3h2.69v1.86h0.41c0.3-0.8,0.74-1.4,1.31-1.78c0.57-0.38,1.25-0.57,2.04-0.57
				c0.83,0,1.51,0.22,2.05,0.66s0.91,1,1.12,1.69h0.41c0.78-1.56,2.02-2.35,3.73-2.35c1.29,0,2.28,0.41,2.99,1.23
				c0.7,0.82,1.05,1.88,1.05,3.19v13.19h-2.69v-12.29c0-0.8-0.18-1.47-0.55-1.98c-0.37-0.52-0.96-0.78-1.76-0.78
				c-0.76,0-1.37,0.29-1.85,0.86c-0.47,0.58-0.71,1.44-0.71,2.59v11.6h-2.69v-12.43c0-0.76-0.21-1.38-0.62-1.88
				c-0.41-0.5-0.97-0.74-1.66-0.74c-0.83,0-1.47,0.3-1.92,0.9s-0.67,1.38-0.67,2.35v11.8H251.12z"/>
			<path class="st5" d="M272.25,481.42V464.3h2.69v1.86h0.41c0.3-0.8,0.74-1.4,1.31-1.78c0.57-0.38,1.25-0.57,2.04-0.57
				c0.83,0,1.51,0.22,2.05,0.66s0.91,1,1.12,1.69h0.41c0.78-1.56,2.02-2.35,3.73-2.35c1.29,0,2.28,0.41,2.99,1.23
				c0.7,0.82,1.05,1.88,1.05,3.19v13.19h-2.69v-12.29c0-0.8-0.18-1.47-0.55-1.98c-0.37-0.52-0.96-0.78-1.76-0.78
				c-0.76,0-1.37,0.29-1.85,0.86c-0.47,0.58-0.71,1.44-0.71,2.59v11.6h-2.69v-12.43c0-0.76-0.21-1.38-0.62-1.88
				c-0.41-0.5-0.97-0.74-1.66-0.74c-0.83,0-1.47,0.3-1.92,0.9s-0.67,1.38-0.67,2.35v11.8H272.25z"/>
			<path class="st5" d="M295.13,481.42v-2.49h6.01v-12.15h-5.39v-2.49h8.08v14.63h5.59v2.49H295.13z M302.45,461.61
				c-0.65,0-1.21-0.24-1.69-0.73c-0.48-0.48-0.73-1.05-0.73-1.69c0-0.67,0.24-1.24,0.73-1.71c0.48-0.47,1.05-0.71,1.69-0.71
				c0.67,0,1.24,0.24,1.71,0.71c0.47,0.47,0.71,1.04,0.71,1.71c0,0.64-0.24,1.21-0.71,1.69
				C303.68,461.36,303.11,461.61,302.45,461.61z"/>
			<path class="st5" d="M315.84,481.42V464.3h2.69v2.9h0.41c1.06-2.25,2.9-3.38,5.52-3.38c1.98,0,3.55,0.61,4.73,1.85
				c1.17,1.23,1.76,3.08,1.76,5.54v10.22h-2.69v-9.66c0-1.79-0.4-3.14-1.21-4.04c-0.81-0.9-1.9-1.34-3.28-1.34
				c-1.61,0-2.89,0.56-3.83,1.67c-0.94,1.12-1.42,2.61-1.42,4.47v8.91H315.84z"/>
			<path class="st5" d="M338.86,488.32v-2.48h10.18c0.62,0,0.93-0.35,0.93-1.04v-6.01h-0.41c-0.55,1.04-1.31,1.81-2.26,2.33
				s-2,0.78-3.12,0.78c-1.52,0-2.92-0.34-4.19-1.02s-2.3-1.68-3.07-2.99c-0.77-1.31-1.16-2.9-1.16-4.76v-0.55
				c0-1.86,0.39-3.45,1.17-4.75c0.78-1.3,1.81-2.3,3.07-2.98c1.26-0.69,2.63-1.04,4.11-1.04c1.24,0,2.34,0.27,3.28,0.81
				c0.94,0.54,1.67,1.33,2.17,2.36h0.41v-2.69h2.69v21.33c0,0.78-0.25,1.43-0.74,1.93c-0.5,0.51-1.13,0.76-1.92,0.76H338.86z
				 M344.25,479.35c1.08,0,2.05-0.26,2.92-0.78c0.86-0.52,1.55-1.25,2.05-2.19c0.51-0.94,0.76-2.05,0.76-3.31v-0.41
				c0-1.22-0.26-2.3-0.78-3.24c-0.52-0.94-1.21-1.69-2.07-2.23c-0.86-0.54-1.82-0.81-2.88-0.81c-1.08,0-2.05,0.26-2.92,0.78
				c-0.86,0.52-1.55,1.24-2.05,2.17c-0.51,0.93-0.76,2.02-0.76,3.26v0.55c0,1.27,0.25,2.36,0.74,3.3s1.17,1.65,2.04,2.16
				C342.16,479.09,343.14,479.35,344.25,479.35z"/>
			<path class="st5" d="M386.91,481.9c-2.65,0-4.72-0.85-6.23-2.54c-1.51-1.69-2.26-4.14-2.26-7.33v-5.38
				c0-3.11,0.75-5.53,2.26-7.27c1.51-1.74,3.58-2.61,6.23-2.61c1.84,0,3.39,0.39,4.66,1.17c1.26,0.78,2.22,1.84,2.87,3.16
				c0.64,1.32,0.97,2.8,0.97,4.44v0.41h-2.9v-0.41c-0.02-1.06-0.22-2.05-0.6-2.97c-0.38-0.92-0.98-1.67-1.79-2.24
				c-0.82-0.58-1.88-0.86-3.19-0.86c-1.86,0-3.26,0.68-4.19,2.04c-0.93,1.36-1.4,3.14-1.4,5.35v4.97c0,2.35,0.47,4.17,1.4,5.45
				c0.93,1.29,2.33,1.93,4.19,1.93c1.31,0,2.38-0.29,3.21-0.86c0.83-0.58,1.43-1.32,1.81-2.24c0.38-0.92,0.57-1.91,0.57-2.97v-0.41
				h2.9v0.41c0,1.63-0.32,3.11-0.97,4.44c-0.65,1.32-1.6,2.38-2.87,3.16C390.3,481.51,388.75,481.9,386.91,481.9z"/>
			<path class="st5" d="M400.33,481.42v-2.49h6.21v-19.19h-6v-2.48h8.7v21.67h6.21v2.49H400.33z"/>
			<path class="st5" d="M427.67,481.9c-1.89,0-3.43-0.62-4.62-1.86c-1.2-1.24-1.79-3.08-1.79-5.52V464.3h2.69v9.87
				c0,1.79,0.37,3.11,1.11,3.94c0.74,0.83,1.86,1.24,3.38,1.24c1.63,0,2.91-0.56,3.85-1.67c0.93-1.12,1.4-2.61,1.4-4.47v-8.91h2.69
				v17.12h-2.69v-3.11h-0.41c-0.55,1.11-1.28,1.98-2.17,2.62S429.05,481.9,427.67,481.9z"/>
			<path class="st5" d="M450.93,481.9c-1.11,0-2.21-0.26-3.31-0.78c-1.11-0.52-1.96-1.3-2.56-2.33h-0.41v2.62h-2.69v-24.16h2.69
				v9.73h0.41c0.6-1.04,1.43-1.82,2.49-2.36c1.06-0.54,2.21-0.81,3.45-0.81c1.4,0,2.7,0.34,3.9,1.02c1.2,0.68,2.16,1.67,2.88,2.97
				c0.73,1.3,1.09,2.87,1.09,4.71v0.69c0,1.86-0.36,3.44-1.07,4.73c-0.71,1.29-1.68,2.27-2.88,2.95
				C453.71,481.56,452.38,481.9,450.93,481.9z M450.38,479.35c1.63,0,3-0.55,4.09-1.66s1.64-2.6,1.64-4.49v-0.69
				c0-1.22-0.25-2.29-0.76-3.21c-0.51-0.92-1.19-1.64-2.05-2.16c-0.86-0.52-1.84-0.78-2.92-0.78c-1.06,0-2.02,0.27-2.88,0.81
				s-1.55,1.28-2.07,2.23c-0.52,0.94-0.78,2.03-0.78,3.24v0.41c0,1.26,0.25,2.37,0.76,3.31c0.51,0.94,1.2,1.68,2.07,2.19
				C448.36,479.09,449.32,479.35,450.38,479.35z"/>
		</g>
	</g>
</g>
</svg>
