<?xml version="1.0" encoding="utf-8"?>
<!-- Generator: Adobe Illustrator 25.2.0, SVG Export Plug-In . SVG Version: 6.00 Build 0)  -->
<svg version="1.1" id="Layer_1" xmlns="http://www.w3.org/2000/svg" xmlns:xlink="http://www.w3.org/1999/xlink" x="0px" y="0px"
	 viewBox="0 0 500 500" style="enable-background:new 0 0 500 500;" xml:space="preserve">
<style type="text/css">
	.st0{fill:#0B1934;}
	.st1{fill:#2AB763;}
	.st2{fill:#19934A;}
	.st3{fill:#565CD6;}
	.st4{fill:#30388E;}
	.st5{fill:#E1E8EE;}
	.st6{display:none;}
	.st7{display:inline;fill:none;stroke:#FFFFFF;stroke-width:0.9972;stroke-miterlimit:10;}
</style>
<g>
	<g>
		<path class="st3" d="M98.72,429.15c-32.99-0.09-28.01-39.05-27.79-61.46c0.08-8.15,2.93-13.42,6.79-19.01
			c14.39-20.82,46.44-15.35,71.48-20.09c53.03-10.05,85.67-68.04,105.43-103.15c21.55-38.29,41.01-95.06,63.87-124.2
			c14.56-18.56,29.61-24.77,35.15-26.75c5.84-2.09,10.47-3.24,13.88-3.39c57.39-2.54,64.16,3.39,61.45,61.46
			c-0.53,11.44-3.92,14.95-4.67,15.99c-10.3,14.35-34.86,11.54-46.29,11.8c-44.33,1.03-80.19,52.72-102.47,84.82
			c-39.65,57.14-37.02,101.26-75.41,141.47c-4.98,5.22-20.55,20.95-45.45,32.33C126.74,431.72,106.47,429.17,98.72,429.15z"/>
		<path class="st1" d="M305.42,424.24c7.78,6.54,20.5,6.54,28.28,0c16.34-14.09,77.55-64.98,92.77-78.03c3.33-2.8,3.33-7.39,0-10.19
			l-39.96-33.61l-54.94-46.21c-7.26-6.41-21.24-2.62-26.55,2.12c-3.07,2.58-4.76,5.36-5.27,8.26c-0.25,1.4-0.88,6.36,5.27,13.88
			c7.7,9.43,33.07,31.47,68.52,59.04c-9.84,4.2-66.29,28.46-85.86,46.04C285.97,387.07,274.13,397.93,305.42,424.24z"/>
		<path class="st1" d="M194.48,76.01c-7.78-6.54-20.5-6.54-28.28,0c-16.34,14.09-77.55,64.98-92.77,78.03
			c-3.33,2.8-3.33,7.39,0,10.19l39.96,33.61l54.94,46.21c7.26,6.41,21.24,2.62,26.55-2.12c3.07-2.58,4.76-5.36,5.27-8.26
			c0.25-1.4,0.88-6.36-5.27-13.88c-7.7-9.43-33.07-31.47-68.52-59.04c9.84-4.2,66.29-28.46,85.86-46.04
			C213.93,113.18,225.77,102.32,194.48,76.01z"/>
	</g>
</g>
</svg>
