<svg width="375" height="97" viewBox="0 0 375 97" fill="none" xmlns="http://www.w3.org/2000/svg">
<path d="M0 3.875H55V13.9375H33.1875V84.875H55V94.875H0V84.875H21.3125V13.9375H0V3.875ZM134 3.875L134.125 65.5C134.125 69.75 133.375 73.7292 131.875 77.4375C130.375 81.1458 128.312 84.375 125.688 87.125C123.062 89.9167 119.938 92.125 116.312 93.75C112.688 95.3333 108.708 96.125 104.375 96.125C99.9583 96.125 95.9375 95.3333 92.3125 93.75C88.6875 92.1667 85.5833 89.9792 83 87.1875C80.4167 84.4375 78.3958 81.2083 76.9375 77.5C75.4792 73.75 74.7292 69.75 74.6875 65.5L74.8125 3.875H85.8125L86.0625 65.5C86.1042 68.2083 86.5208 70.8125 87.3125 73.3125C88.1458 75.8125 89.3333 78.0208 90.875 79.9375C92.375 81.8542 94.25 83.3958 96.5 84.5625C98.7917 85.7292 101.417 86.3125 104.375 86.3125C107.333 86.3125 109.938 85.75 112.188 84.625C114.438 83.4583 116.333 81.8958 117.875 79.9375C119.375 78.0208 120.521 75.8125 121.312 73.3125C122.104 70.8125 122.542 68.2083 122.625 65.5L122.812 3.875H134ZM151.812 84.125H160.812V10.9375H151.812V0L194.438 0.125C198.271 0.125 201.875 0.854167 205.25 2.3125C208.625 3.72917 211.562 5.6875 214.062 8.1875C216.562 10.6458 218.521 13.5625 219.938 16.9375C221.396 20.3125 222.125 23.9375 222.125 27.8125C222.125 31.8542 221 35.5417 218.75 38.875C216.5 42.2083 213.292 44.875 209.125 46.875C211.167 47.9583 213.021 49.2292 214.688 50.6875C216.354 52.1042 217.771 53.6667 218.938 55.375C220.104 57.0833 221 58.8958 221.625 60.8125C222.292 62.7292 222.625 64.6875 222.625 66.6875C222.625 70.6458 221.896 74.3333 220.438 77.75C219.021 81.1667 217.062 84.1458 214.562 86.6875C212.062 89.2292 209.125 91.2292 205.75 92.6875C202.417 94.1458 198.833 94.875 195 94.875H151.812V84.125ZM173.062 52.75V84.125H195.125C197.125 84.125 198.979 83.625 200.688 82.625C202.396 81.625 203.896 80.3333 205.188 78.75C206.479 77.125 207.479 75.2917 208.188 73.25C208.938 71.2083 209.312 69.125 209.312 67C209.312 65.1667 208.938 63.3958 208.188 61.6875C207.438 59.9792 206.417 58.4583 205.125 57.125C203.875 55.7917 202.375 54.7292 200.625 53.9375C198.917 53.1458 197.083 52.75 195.125 52.75H173.062ZM173.062 10.9375V41.875H194.562C196.562 41.875 198.417 41.4792 200.125 40.6875C201.875 39.8958 203.375 38.8333 204.625 37.5C205.917 36.1667 206.938 34.625 207.688 32.875C208.438 31.125 208.812 29.3125 208.812 27.4375C208.812 25.3958 208.438 23.3958 207.688 21.4375C206.938 19.4375 205.917 17.6667 204.625 16.125C203.333 14.5833 201.812 13.3333 200.062 12.375C198.354 11.4167 196.521 10.9375 194.562 10.9375H173.062ZM250.875 58.375V94.875H239.312V3.875H268.812C272.896 3.95833 276.75 4.60417 280.375 5.8125C284.042 7.02083 287.25 8.77083 290 11.0625C292.75 13.3542 294.917 16.1875 296.5 19.5625C298.125 22.9375 298.938 26.8125 298.938 31.1875C298.938 35.5625 298.125 39.4375 296.5 42.8125C294.917 46.1458 292.75 48.9583 290 51.25C287.25 53.5417 284.042 55.2917 280.375 56.5C276.75 57.7083 272.896 58.3333 268.812 58.375H250.875ZM250.875 48.875H268.812C271.479 48.8333 273.938 48.4167 276.188 47.625C278.438 46.7917 280.396 45.625 282.062 44.125C283.729 42.625 285.021 40.8125 285.938 38.6875C286.896 36.5208 287.375 34.0625 287.375 31.3125C287.375 28.5625 286.896 26.0833 285.938 23.875C285.021 21.6667 283.75 19.7917 282.125 18.25C280.458 16.7083 278.479 15.5208 276.188 14.6875C273.938 13.8542 271.479 13.4167 268.812 13.375H250.875V48.875ZM374.062 67.5C373.521 71.7083 372.438 75.5833 370.812 79.125C369.188 82.625 367.083 85.625 364.5 88.125C361.875 90.6667 358.771 92.6458 355.188 94.0625C351.646 95.4375 347.688 96.125 343.312 96.125C339.562 96.125 336.146 95.6042 333.062 94.5625C330.021 93.4792 327.312 92 324.938 90.125C322.521 88.25 320.438 86.0417 318.688 83.5C316.979 80.9583 315.562 78.1875 314.438 75.1875C313.271 72.1875 312.396 69.0417 311.812 65.75C311.271 62.4583 310.979 59.125 310.938 55.75V43.0625C310.979 39.6875 311.271 36.3542 311.812 33.0625C312.396 29.7708 313.271 26.625 314.438 23.625C315.562 20.625 316.979 17.8542 318.688 15.3125C320.438 12.7292 322.521 10.5 324.938 8.625C327.312 6.75 330.021 5.29167 333.062 4.25C336.104 3.16667 339.521 2.625 343.312 2.625C347.854 2.625 351.917 3.33333 355.5 4.75C359.083 6.125 362.167 8.08333 364.75 10.625C367.333 13.2083 369.396 16.2917 370.938 19.875C372.521 23.4583 373.562 27.4167 374.062 31.75H362.5C362.125 29 361.479 26.4375 360.562 24.0625C359.646 21.6875 358.417 19.6042 356.875 17.8125C355.333 16.0208 353.438 14.625 351.188 13.625C348.979 12.5833 346.354 12.0625 343.312 12.0625C340.562 12.0625 338.125 12.5208 336 13.4375C333.917 14.3125 332.125 15.5208 330.625 17.0625C329.083 18.6042 327.792 20.3958 326.75 22.4375C325.75 24.4792 324.938 26.6458 324.312 28.9375C323.688 31.2292 323.229 33.5833 322.938 36C322.688 38.375 322.562 40.6875 322.562 42.9375V55.75C322.562 58 322.688 60.3333 322.938 62.75C323.229 65.125 323.688 67.4583 324.312 69.75C324.938 72.0833 325.75 74.2708 326.75 76.3125C327.75 78.3542 329.021 80.1458 330.562 81.6875C332.104 83.2708 333.917 84.5208 336 85.4375C338.083 86.3125 340.521 86.75 343.312 86.75C346.354 86.75 348.979 86.2708 351.188 85.3125C353.438 84.3542 355.333 83 356.875 81.25C358.417 79.5417 359.646 77.5208 360.562 75.1875C361.479 72.8125 362.125 70.25 362.5 67.5H374.062Z" fill="white"/>
</svg>
